# xmcd
#
# Track frame offsets:
#	150
#	11740
#	24029
#	38000
#	48994
#	61343
#	74435
#	86539
#	98617
#	110990
#	123524
#	136996
#	149532
#	162858
#	176085
#	189794
#	202768
#	214256
#	229035
#	242021
#	254594
#	266922
#	278730
#	292233
#	304595
#
# Disc length: 4238 seconds
#
# Revision: 1
# Processed by: cddbd v1.5.1PL2 Copyright (c) Steve Scherf et al.
# Submitted via: audiograbber 1.83.01
#
DISCID=6d108c19
DTITLE=Various Artist - The R&B Years 1947 Disk 2
DYEAR=1947
DGENRE=R&B
TTITLE0=Cecil Gant - Boozie Boogie
TTITLE1=Hadda Brooks - That's My Desire
TTITLE2=Gatemouth Moore - Love Doctor Blues
TTITLE3=Tiny Bradshaw - Take the Hands off the Clock
TTITLE4=Buster Bennett - Signifying Woman
TTITLE5=Prince Waterford - Under Cover Blues
TTITLE6=Buddy Johnson - Hey Sweet Potato
TTITLE7=Ivory Joe Hunter - High Cost Low Pay Blues
TTITLE8=Gene Phillips - Big Fat mama
TTITLE9=Illinois Jacquet - Blow Illinois Blow
TTITLE10=Rabon Tarrant - Blues with a Feeling
TTITLE11=Memphis Slim - Rockin' the House
TTITLE12=Erskine Hawkins - Hawk's Boogie
TTITLE13=Charles Brown - New Orleans Blues
TTITLE14=T-Bone Walker - Hard Pain Blues
TTITLE15=Five Blazers - Chicago Boogie
TTITLE16=Louis Jordan - Jack You're Dead
TTITLE17=Count Basie - I Ain't mad at You
TTITLE18=Eddie Vinson - Bonus Pay
TTITLE19=George Washington - Good Boogie Googie
TTITLE20=Big Three Trio - Money Trewe blues
TTITLE21=Baby Dee and bill campbell - Look What Baby's got for You
TTITLE22=The Ravens - Ol' Man River
TTITLE23=Memphis Slim - Jimmy's Jump
TTITLE24=Walter brown - Gonna Open Up a Business
EXTD=
EXTT0=
EXTT1=
EXTT2=
EXTT3=
EXTT4=
EXTT5=
EXTT6=
EXTT7=
EXTT8=
EXTT9=
EXTT10=
EXTT11=
EXTT12=
EXTT13=
EXTT14=
EXTT15=
EXTT16=
EXTT17=
EXTT18=
EXTT19=
EXTT20=
EXTT21=
EXTT22=
EXTT23=
EXTT24=
PLAYORDER=
